<svg id="visual" viewBox="0 0 900 600" width="900" height="600" xmlns="http://www.w3.org/2000/svg" xmlns:xlink="http://www.w3.org/1999/xlink" version="1.1"><rect x="0" y="0" width="900" height="600" fill="#c3d3db"></rect><path d="M0 476L21.5 468.7C43 461.3 86 446.7 128.8 437.3C171.7 428 214.3 424 257.2 432C300 440 343 460 385.8 462.3C428.7 464.7 471.3 449.3 514.2 456.7C557 464 600 494 642.8 494.7C685.7 495.3 728.3 466.7 771.2 451.3C814 436 857 434 878.5 433L900 432L900 601L878.5 601C857 601 814 601 771.2 601C728.3 601 685.7 601 642.8 601C600 601 557 601 514.2 601C471.3 601 428.7 601 385.8 601C343 601 300 601 257.2 601C214.3 601 171.7 601 128.8 601C86 601 43 601 21.5 601L0 601Z" fill="#0066FF" stroke-linecap="round" stroke-linejoin="miter"></path></svg>